<svg width="163" height="163" xmlns="http://www.w3.org/2000/svg"><g fill-rule="nonzero" fill="none"><path d="M0 81.5C0 36.488 36.489 0 81.499 0 126.51 0 163 36.487 163 81.5c0 45.01-36.489 81.5-81.501 81.5C36.489 163 0 126.51 0 81.5z" fill="#284A9F"/><path d="M128 78.834h-.01c0-14.382-11.295-26.408-25.632-26.823a26.39 26.39 0 00-20.95 9.392c-4.83-5.72-12.037-9.378-20.1-9.378C46.775 52.025 35 63.81 35 78.387V112h12.244V78.834c0-7.754 6.324-14.285 14.055-14.212 7.575.105 13.68 6.26 13.743 13.857v33.516h12.584v-33.23c0-7.73 6.31-14.253 14.024-14.189 7.57.087 13.686 6.22 13.775 13.81V112H128V78.834z" fill="#FFF"/></g></svg>