<svg xmlns="http://www.w3.org/2000/svg" width="512" height="512"><path d="M81.498 0C36.488 0 0 36.486 0 81.5 0 126.508 36.488 163 81.498 163 126.511 163 163 126.508 163 81.5 163 36.486 126.51 0 81.498 0zm19.356 52.01c.5-.014 1.003-.013 1.505.002 14.337.415 25.631 12.44 25.631 26.822h.01V112h-12.574V78.387c-.09-7.592-6.206-13.724-13.776-13.81-7.713-.065-14.023 6.458-14.023 14.189v33.23H75.043V78.48c-.064-7.598-6.17-13.75-13.744-13.856-7.732-.074-14.055 6.457-14.055 14.211V112H35V78.387c0-14.577 11.774-26.362 26.309-26.362 8.062 0 15.27 3.658 20.1 9.377a26.393 26.393 0 0119.445-9.392z" fill="#a0a5aa"/></svg>