<svg xmlns="http://www.w3.org/2000/svg" width="512" height="512"><path d="M255.994 0C114.612 0 0 114.608 0 256c0 141.376 114.612 256 255.994 256C397.384 512 512 397.376 512 256 512 114.608 397.383 0 255.994 0zm60.797 163.368a83.17 83.17 0 014.73.006c45.032 1.304 80.51 39.074 80.51 84.252h.03v104.178h-39.497V246.22c-.28-23.846-19.492-43.107-43.27-43.38-24.227-.203-44.049 20.286-44.049 44.57v104.38h-39.527V246.51c-.202-23.864-19.378-43.191-43.172-43.521-24.286-.232-44.147 20.281-44.147 44.638v104.178h-38.46V246.22c0-45.786 36.984-82.804 82.638-82.804 25.326 0 47.965 11.488 63.135 29.454 15.291-18.16 37.535-28.841 61.08-29.503z" fill="#a0a5aa"/></svg>