<?xml version="1.0" encoding="UTF-8"?>
<svg width="163px" height="163px" viewBox="0 0 163 163" version="1.1" xmlns="http://www.w3.org/2000/svg" xmlns:xlink="http://www.w3.org/1999/xlink">
    <!-- Generator: Sketch 53.2 (72643) - https://sketchapp.com -->
    <title>icon</title>
    <desc>Created with Sketch.</desc>
    <g id="Page-1" stroke="none" stroke-width="1" fill="none" fill-rule="evenodd">
        <g id="icon" fill-rule="nonzero">
            <path d="M0,81.5006436 C0,36.487025 36.4885998,0 81.498713,0 C126.5114,0 163,36.487025 163,81.5006436 C163,126.509114 126.5114,163 81.498713,163 C36.4885998,163 0,126.509114 0,81.5006436 Z" id="Shape" fill="#284A9F"></path>
            <path d="M128,78.8342498 L127.990801,78.8342498 C127.990801,64.4516617 116.694659,52.4261942 102.358308,52.0110457 C94.3131509,51.7782506 86.6008182,55.2355287 81.4080118,61.4026267 C76.578635,55.6828034 69.3713648,52.0248841 61.3086052,52.0248841 C46.7744807,52.0248841 35,63.810488 35,78.386812 L35,112 L47.2436202,112 L47.2436202,78.8342498 C47.2436202,71.0801989 53.5678042,64.5485296 61.2994065,64.6223337 C68.8742857,64.7273736 74.9781521,70.881742 75.0424333,78.4790672 L75.0424333,111.995387 L87.6264094,111.995387 L87.6264094,78.7650584 C87.6264094,71.0340713 93.9367952,64.5116275 101.65,64.5762061 C109.219763,64.6633754 115.335778,70.7950995 115.425223,78.386812 L115.425223,112 L128,112 L128,78.8342498 Z" id="mollie" fill="#FFFFFF"></path>
        </g>
    </g>
</svg>
