<?xml version="1.0" encoding="UTF-8"?>
<svg width="200px" height="45px" viewBox="0 0 200 45" version="1.1" xmlns="http://www.w3.org/2000/svg" xmlns:xlink="http://www.w3.org/1999/xlink">
    <g stroke="none" stroke-width="1" fill="none" fill-rule="evenodd">
        <g fill="#0077FF"><g><rect id="base" x="0" y="0" width="200" height="45" rx="4"></rect></g></g>
        <path d="M54,23.2363636 C54,19.8181818 56.1978982,17.4727273 59.1524498,17.4727273 C61.7647059,17.4727273 63.3680906,19.0181818 63.7824485,21.2545455 L61.4944725,21.2545455 C61.1161458,20.2363636 60.4315545,19.5454545 59.1524498,19.5454545 C57.3869251,19.5454545 56.3420227,21.1090909 56.3420227,23.2363636 C56.3420227,25.3454545 57.3869251,26.9272727 59.1524498,26.9272727 C60.4315545,26.9272727 61.1161458,26.2363636 61.4944725,25.2 L63.7824485,25.2 C63.3680906,27.4545455 61.7647059,29 59.1524498,29 C56.1978982,29 54,26.6545455 54,23.2363636 Z M72.6280879,24.7636364 C72.6280879,27.2545455 71.0247032,29 68.6826805,29 C66.3406578,29 64.7372731,27.2545455 64.7372731,24.7636364 C64.7372731,22.2545455 66.3406578,20.5090909 68.6826805,20.5090909 C71.0247032,20.5090909 72.6280879,22.2545455 72.6280879,24.7636364 Z M70.4121742,24.7636364 C70.4121742,23.4 69.7996451,22.4181818 68.6826805,22.4181818 C67.5657158,22.4181818 66.9531868,23.4 66.9531868,24.7636364 C66.9531868,26.1090909 67.5657158,27.0909091 68.6826805,27.0909091 C69.7996451,27.0909091 70.4121742,26.1090909 70.4121742,24.7636364 Z M74.051317,28.8181818 L74.051317,20.6909091 L76.2852463,20.6909091 L76.2852463,21.4363636 C76.7176198,20.9272727 77.5103044,20.5090909 78.4471134,20.5090909 C80.2666849,20.5090909 81.2935717,21.7090909 81.2935717,23.5090909 L81.2935717,28.8181818 L79.0596424,28.8181818 L79.0596424,23.9818182 C79.0596424,23.1272727 78.627269,22.5454545 77.7445066,22.5454545 C77.0599154,22.5454545 76.4654019,22.9636364 76.2852463,23.6727273 L76.2852463,28.8181818 L74.051317,28.8181818 Z M83.1491743,28.8181818 L83.1491743,20.6909091 L85.3831036,20.6909091 L85.3831036,21.4363636 C85.815477,20.9272727 86.6081616,20.5090909 87.5449707,20.5090909 C89.3645421,20.5090909 90.391429,21.7090909 90.391429,23.5090909 L90.391429,28.8181818 L88.1574997,28.8181818 L88.1574997,23.9818182 C88.1574997,23.1272727 87.7251262,22.5454545 86.8423639,22.5454545 C86.1577726,22.5454545 85.5632592,22.9636364 85.3831036,23.6727273 L85.3831036,28.8181818 L83.1491743,28.8181818 Z M97.1472635,26.1636364 L99.2190528,26.1636364 C98.9308039,27.8909091 97.6697148,29 95.6519722,29 C93.3099495,29 91.7425959,27.2727273 91.7425959,24.7636364 C91.7425959,22.3090909 93.3639962,20.5090909 95.615941,20.5090909 C97.9759793,20.5090909 99.2730995,22.1636364 99.2730995,24.5454545 L99.2730995,25.2363636 L93.9044629,25.2363636 C93.9765252,26.4545455 94.6611164,27.1818182 95.6519722,27.1818182 C96.4086256,27.1818182 96.967108,26.8545455 97.1472635,26.1636364 Z M95.6339566,22.3454545 C94.7692098,22.3454545 94.1566808,22.8727273 93.9585096,23.8727273 L97.0752013,23.8727273 C97.0571858,23.0181818 96.5527501,22.3454545 95.6339566,22.3454545 Z M100.191893,24.7636364 C100.191893,22.2363636 101.777262,20.5090909 104.065238,20.5090909 C106.082981,20.5090909 107.362085,21.7090909 107.596288,23.4363636 L105.39839,23.4363636 C105.272281,22.8181818 104.785861,22.4363636 104.065238,22.4363636 C103.038351,22.4363636 102.407807,23.3818182 102.407807,24.7636364 C102.407807,26.1272727 103.038351,27.0727273 104.065238,27.0727273 C104.785861,27.0727273 105.272281,26.6909091 105.39839,26.0727273 L107.596288,26.0727273 C107.362085,27.8181818 106.082981,29 104.065238,29 C101.777262,29 100.191893,27.2727273 100.191893,24.7636364 Z M109.45189,26.3636364 L109.45189,22.5090909 L108.226832,22.5090909 L108.226832,20.6909091 L109.45189,20.6909091 L109.45189,18.4909091 L111.667804,18.4909091 L111.667804,20.6909091 L113.433329,20.6909091 L113.433329,22.5090909 L111.667804,22.5090909 L111.667804,26.0727273 C111.667804,26.7090909 112.0101,27 112.586598,27 C112.928893,27 113.30722,26.8909091 113.559438,26.7272727 L113.559438,28.7272727 C113.253173,28.8909091 112.712706,28.9818182 112.118193,28.9818182 C110.478777,28.9818182 109.45189,28.1636364 109.45189,26.3636364 Z M123.467995,28.8181818 L121.306128,28.8181818 L118.261499,20.6909091 L120.603521,20.6909091 L122.459124,26.0909091 L124.278695,20.6909091 L126.53064,20.6909091 L123.467995,28.8181818 Z M129.971612,20.6909091 L129.971612,28.8181818 L127.737683,28.8181818 L127.737683,20.6909091 L129.971612,20.6909091 Z M130.169783,18.3454545 C130.169783,19.1090909 129.557254,19.6363636 128.854647,19.6363636 C128.134025,19.6363636 127.521496,19.1090909 127.521496,18.3454545 C127.521496,17.6 128.134025,17.0545455 128.854647,17.0545455 C129.557254,17.0545455 130.169783,17.6 130.169783,18.3454545 Z M138.529002,28.8181818 L136.385151,28.8181818 L136.385151,28.3818182 C136.114917,28.6545455 135.304217,28.9636364 134.421455,28.9636364 C132.800055,28.9636364 131.430872,28.0181818 131.430872,26.3272727 C131.430872,24.7818182 132.800055,23.7272727 134.547564,23.7272727 C135.250171,23.7272727 136.060871,23.9636364 136.385151,24.2 L136.385151,23.6 C136.385151,22.9090909 135.970793,22.3454545 135.070015,22.3454545 C134.43947,22.3454545 134.061144,22.6363636 133.880988,23.1090909 L131.755152,23.1090909 C131.989354,21.6363636 133.30449,20.5090909 135.142077,20.5090909 C137.285929,20.5090909 138.529002,21.6909091 138.529002,23.6363636 L138.529002,28.8181818 Z M136.385151,26.6 L136.385151,26.0181818 C136.18698,25.5818182 135.574451,25.3090909 134.925891,25.3090909 C134.223284,25.3090909 133.502661,25.6181818 133.502661,26.3090909 C133.502661,27.0181818 134.223284,27.3090909 134.925891,27.3090909 C135.574451,27.3090909 136.18698,27.0363636 136.385151,26.6 Z M150.725536,28.8181818 L149.158182,28.8181818 L146.419817,21.5272727 L146.419817,28.8181818 L144.25795,28.8181818 L144.25795,17.6545455 L146.996315,17.6545455 L149.950867,25.5272727 L152.887403,17.6545455 L155.589737,17.6545455 L155.589737,28.8181818 L153.409854,28.8181818 L153.409854,21.5272727 L150.725536,28.8181818 Z M165.011874,24.7636364 C165.011874,27.2545455 163.408489,29 161.066466,29 C158.724444,29 157.121059,27.2545455 157.121059,24.7636364 C157.121059,22.2545455 158.724444,20.5090909 161.066466,20.5090909 C163.408489,20.5090909 165.011874,22.2545455 165.011874,24.7636364 Z M162.79596,24.7636364 C162.79596,23.4 162.183431,22.4181818 161.066466,22.4181818 C159.949502,22.4181818 159.336973,23.4 159.336973,24.7636364 C159.336973,26.1090909 159.949502,27.0909091 161.066466,27.0909091 C162.183431,27.0909091 162.79596,26.1090909 162.79596,24.7636364 Z M168.669032,17 L168.669032,28.8181818 L166.435103,28.8181818 L166.435103,17 L168.669032,17 Z M172.848642,17 L172.848642,28.8181818 L170.614713,28.8181818 L170.614713,17 L172.848642,17 Z M177.028252,20.6909091 L177.028252,28.8181818 L174.794322,28.8181818 L174.794322,20.6909091 L177.028252,20.6909091 Z M177.226423,18.3454545 C177.226423,19.1090909 176.613894,19.6363636 175.911287,19.6363636 C175.190665,19.6363636 174.578136,19.1090909 174.578136,18.3454545 C174.578136,17.6 175.190665,17.0545455 175.911287,17.0545455 C176.613894,17.0545455 177.226423,17.6 177.226423,18.3454545 Z M183.874164,26.1636364 L185.945953,26.1636364 C185.657704,27.8909091 184.396615,29 182.378873,29 C180.03685,29 178.469496,27.2727273 178.469496,24.7636364 C178.469496,22.3090909 180.090897,20.5090909 182.342842,20.5090909 C184.70288,20.5090909 186,22.1636364 186,24.5454545 L186,25.2363636 L180.631363,25.2363636 C180.703426,26.4545455 181.388017,27.1818182 182.378873,27.1818182 C183.135526,27.1818182 183.694008,26.8545455 183.874164,26.1636364 Z M182.360857,22.3454545 C181.49611,22.3454545 180.883581,22.8727273 180.68541,23.8727273 L183.802102,23.8727273 C183.784086,23.0181818 183.279651,22.3454545 182.360857,22.3454545 Z" fill="#FFFFFF" fill-rule="nonzero"></path>
        <path d="M32.4672501,14 C30.379383,14 28.3994957,14.8558511 26.9775042,16.369365 C25.5555513,14.8648596 23.5846238,14 21.5147019,14 C17.374871,14 14,17.3693658 14,21.5134799 L14,31 L18,31 L18,21.5134799 C18,19.7928465 19.4627895,18.3243238 21.1277227,18.1531484 C21.2447137,18.1441399 21.3617176,18.1351313 21.4697103,18.1351313 C23.3416306,18.1351313 24.9910017,19.6395724 25,21.5134799 L25,31 L29.0203797,31 L29.0203797,21.5134799 C29.0203797,19.801855 30.4243746,18.3153152 32.098319,18.1441399 C32.2152971,18.1351313 32.3322753,18.1261228 32.4402551,18.1261228 C34.3121626,18.1261228 35.9910017,19.6485809 36,21.5134799 L36,31 L40,31 L40,21.5134799 C40,19.6126754 39.2980026,17.9008961 38.029111,16.4864762 C36.760091,15.0630606 35.0231583,14.1891925 33.1332542,14.0270257 C32.9082963,14.0090086 32.692208,14 32.4672501,14 Z" fill="#FFFFFF" fill-rule="nonzero"></path>
    </g>
</svg>